<svg xmlns="http://www.w3.org/2000/svg" viewBox="0 0 377 18"><path d="M375 .67h-34a1 1 0 0 0-1 1v14.66a.998.998 0 0 0 1 1h34a.999.999 0 0 0 1-1V1.67a.998.998 0 0 0-1-1z" fill="#fff" stroke="#E0E0E0" stroke-width=".67"/><path d="M355.25 6.81h-1.32v1h1.54v.44h-2.09V5h2.07v.45h-1.52v.89h1.32v.47zm2.46.68h-1.24l-.26.74h-.57L356.85 5h.49l1.21 3.2H358l-.29-.71zM356.63 7h.93l-.47-1.33-.46 1.33zm4 .37a.398.398 0 0 0-.15-.33 2.004 2.004 0 0 0-.53-.23 2.255 2.255 0 0 1-.62-.26.813.813 0 0 1-.352-1.067.777.777 0 0 1 .232-.283A1.25 1.25 0 0 1 360 5a1.38 1.38 0 0 1 .59.12c.171.078.316.203.42.36.1.147.152.322.15.5h-.56a.474.474 0 0 0-.16-.39.612.612 0 0 0-.45-.15.659.659 0 0 0-.42.12.403.403 0 0 0-.15.33.376.376 0 0 0 .16.29c.168.103.349.18.54.23.21.056.412.14.6.25.117.091.213.207.28.34a.83.83 0 0 1 .11.43.759.759 0 0 1-.31.63 1.3 1.3 0 0 1-.83.24 1.529 1.529 0 0 1-.64-.13 1.075 1.075 0 0 1-.45-.36.85.85 0 0 1-.16-.52h.55a.522.522 0 0 0 .18.42.809.809 0 0 0 .52.15.7.7 0 0 0 .44-.12.394.394 0 0 0 .18-.33l.04-.04zm2.09-.86.7-1.51h.58l-1.07 2v1.23h-.56V7.06l-1.07-2h.61l.81 1.45zm4.69.26h-1.32v1h1.54v.44h-2.13V5h2.08v.45h-1.53v.89h1.32l.04.43zM368.76 5l.93 2.46.92-2.46h.72v3.2h-.56V7.18l.06-1.41-.95 2.46h-.4l-.94-2.46.06 1.41v1.05h-.6V5h.76zm3.81 3.2H372V5h.55l.02 3.2zm-16.64 3.49a1.91 1.91 0 0 1-.16.82 1.21 1.21 0 0 1-.47.55 1.32 1.32 0 0 1-.69.19 1.38 1.38 0 0 1-.7-.19 1.3 1.3 0 0 1-.47-.54 1.912 1.912 0 0 1-.16-.81v-.18a1.988 1.988 0 0 1 .16-.83 1.23 1.23 0 0 1 1.16-.74c.247-.006.49.06.7.19.205.128.366.317.46.54a1.9 1.9 0 0 1 .17.82v.18zm-.55-.17a1.332 1.332 0 0 0-.21-.81.65.65 0 0 0-.57-.29.662.662 0 0 0-.56.29c-.15.235-.224.511-.21.79v.19c-.018.285.056.57.21.81a.71.71 0 0 0 1.14 0c.147-.247.217-.533.2-.82v-.16zm1.66.5v1.18h-.56V10h1.23c.308-.014.61.086.85.28a.996.996 0 0 1 .32.74.917.917 0 0 1-.31.73 1.291 1.291 0 0 1-.87.27h-.66zm0-.45h.67a.65.65 0 0 0 .45-.14.497.497 0 0 0 .16-.4.553.553 0 0 0-.16-.42.671.671 0 0 0-.44-.16H357l.04 1.12zm4.63-1.12h-1v2.75h-.55v-2.72h-1V10h2.53l.02.45zm1 2.75h-.55V10h.55v3.2zm3.24-1.51a1.91 1.91 0 0 1-.16.82c-.1.225-.264.416-.47.55a1.32 1.32 0 0 1-.69.19 1.38 1.38 0 0 1-.7-.19 1.3 1.3 0 0 1-.47-.54 1.912 1.912 0 0 1-.16-.81v-.18a1.988 1.988 0 0 1 .16-.83 1.23 1.23 0 0 1 1.16-.74c.246-.005.489.061.7.19.205.128.366.317.46.54a1.9 1.9 0 0 1 .17.82v.18zm-.56-.17a1.329 1.329 0 0 0-.2-.81.65.65 0 0 0-.57-.29.662.662 0 0 0-.56.29c-.15.235-.224.511-.21.79v.19c-.018.285.056.57.21.81a.65.65 0 0 0 .57.29.64.64 0 0 0 .56-.28 1.36 1.36 0 0 0 .2-.82v-.17zm3.65 1.71h-.55L367 11v2.27h-.56V10h.56l1.43 2.28V10h.57v3.23zm2.33-.82a.398.398 0 0 0-.15-.33 2.004 2.004 0 0 0-.53-.23 2.253 2.253 0 0 1-.62-.26.812.812 0 0 1-.352-1.067.778.778 0 0 1 .232-.283 1.25 1.25 0 0 1 .82-.25 1.38 1.38 0 0 1 .59.12c.17.075.313.2.41.36a.805.805 0 0 1 .15.5h-.55a.474.474 0 0 0-.16-.39.612.612 0 0 0-.45-.15.659.659 0 0 0-.42.12.403.403 0 0 0-.107.495.35.35 0 0 0 .117.125c.168.103.349.18.54.23.21.056.412.14.6.25.134.082.247.195.33.33a.83.83 0 0 1 .11.43.78.78 0 0 1-.31.63 1.3 1.3 0 0 1-.83.24 1.5 1.5 0 0 1-.64-.13.998.998 0 0 1-.45-.36.85.85 0 0 1-.16-.52h.55a.522.522 0 0 0 .18.42c.15.11.334.163.52.15a.65.65 0 0 0 .43-.12.372.372 0 0 0 .16-.31h-.01z" fill="#4E4E4E"/><path fill-rule="evenodd" clip-rule="evenodd" d="M349.45 5.84V5h-.78v.84h-3.14V5h-.79v.84h-.39a.814.814 0 0 0-.73.528.811.811 0 0 0-.05.312v5.48a.82.82 0 0 0 .79.84h5.49a.82.82 0 0 0 .79-.84V6.68a.82.82 0 0 0-.79-.84h-.4zm-5.1 6.32V7.53h5.49v4.63h-5.49z" fill="#212121"/><path d="M346.22 9.9a1.002 1.002 0 0 0 .981-1.195 1.002 1.002 0 0 0-1.363-.729 1 1 0 0 0 .382 1.924zm1.57 1.89a1.002 1.002 0 0 0 .981-1.195 1.003 1.003 0 0 0-1.364-.729.997.997 0 0 0-.617.924.998.998 0 0 0 1 1z" fill="#212121"/><path d="m347.76 8.58-1.65 2.56" stroke="#212121" stroke-width=".63" stroke-linecap="square"/><path d="M333.67.67h-34a1 1 0 0 0-1 1v14.66a.998.998 0 0 0 1 1h34a1 1 0 0 0 1-1V1.67a.998.998 0 0 0-1-1z" fill="#fff" stroke="#E0E0E0" stroke-width=".67"/><path d="M312.47 7.19a1.19 1.19 0 0 1-.38.8 1.3 1.3 0 0 1-.88.29 1.24 1.24 0 0 1-.67-.18 1.267 1.267 0 0 1-.45-.52 1.875 1.875 0 0 1-.17-.78v-.29a1.999 1.999 0 0 1 .16-.8 1.248 1.248 0 0 1 1.16-.71c.31-.014.613.09.85.29.226.21.362.5.38.81h-.56a.767.767 0 0 0-.2-.5.66.66 0 0 0-.47-.15.645.645 0 0 0-.56.27 1.34 1.34 0 0 0-.2.77v.29c-.013.276.053.55.19.79a.615.615 0 0 0 .54.27.68.68 0 0 0 .49-.15.722.722 0 0 0 .21-.49l.56-.01zm2.29.3h-1.24l-.26.74h-.58L313.89 5h.5l1.21 3.2h-.6l-.24-.71zM313.67 7h.93l-.46-1.33-.47 1.33zm4 .37a.424.424 0 0 0-.15-.33 2.076 2.076 0 0 0-.54-.23 2.061 2.061 0 0 1-.61-.26.818.818 0 0 1-.362-1.068.778.778 0 0 1 .232-.282A1.27 1.27 0 0 1 317 5a1.43 1.43 0 0 1 .6.12 1 1 0 0 1 .41.35.923.923 0 0 1 .15.51h-.55a.5.5 0 0 0-.16-.39.64.64 0 0 0-.45-.15.659.659 0 0 0-.42.12.417.417 0 0 0-.16.33.36.36 0 0 0 .17.29c.165.102.343.18.53.23.21.056.412.14.6.25a.9.9 0 0 1 .34.33.82.82 0 0 1 .1.42.766.766 0 0 1-.31.64 1.3 1.3 0 0 1-.83.24 1.7 1.7 0 0 1-.64-.13 1.157 1.157 0 0 1-.45-.36.85.85 0 0 1-.16-.52h.56a.522.522 0 0 0 .18.42.78.78 0 0 0 .51.15.681.681 0 0 0 .44-.12.366.366 0 0 0 .18-.32l.03-.04zm3.58.82h-.55V6.81h-1.44v1.42h-.55V5h.55v1.37h1.44V5h.55v3.19zm4.33-1.51a1.91 1.91 0 0 1-.16.82 1.211 1.211 0 0 1-.47.55 1.35 1.35 0 0 1-1.38 0 1.241 1.241 0 0 1-.47-.54 1.8 1.8 0 0 1-.17-.82v-.14a1.942 1.942 0 0 1 .16-.82 1.268 1.268 0 0 1 .98-.743 1.276 1.276 0 0 1 1.35.733c.108.26.163.538.16.82v.14zm-.58-.13a1.379 1.379 0 0 0-.21-.82.66.66 0 0 0-.56-.28.682.682 0 0 0-.57.28 1.41 1.41 0 0 0-.21.8v.19c-.018.285.056.569.21.81a.676.676 0 0 0 .57.29.646.646 0 0 0 .57-.28c.147-.247.217-.533.2-.82v-.17zm3.64 1.68h-.55L326.66 6v2.23h-.55V5h.55l1.43 2.28V5h.55v3.23zm-18.61 5V10h.97c.262-.001.52.064.75.19.218.128.395.315.51.54.123.245.185.516.18.79v.16c.007.277-.055.552-.18.8a1.29 1.29 0 0 1-.52.54 1.58 1.58 0 0 1-.76.18l-.95.03zm.55-2.75v2.31h.42a.809.809 0 0 0 .66-.27c.172-.226.258-.507.24-.79v-.18a1.197 1.197 0 0 0-.22-.79.794.794 0 0 0-.66-.28h-.44zm4.26 1.32h-1.32v1h1.54v.44H313V10h2v.45h-1.52v.89h1.32l.04.46zm1.23 1h1.45v.44h-2V10h.56l-.01 2.8zm2.46.44H318V10h.55l-.02 3.24zm1.81-.69.81-2.51h.62l-1.16 3.2h-.53L318.93 10h.61l.8 2.55zm3.66-.75h-1.32v1h1.54v.44h-2.09V10h2.07v.45h-1.52v.89H324v.46zm1.85.2h-.62v1.23h-.56V10h1.13a1.32 1.32 0 0 1 .85.25.895.895 0 0 1 .3.72c.002.19-.05.378-.15.54a.998.998 0 0 1-.43.33l.72 1.33h-.6l-.64-1.17zm-.62-.45h.57a.611.611 0 0 0 .44-.14.474.474 0 0 0 .16-.39.492.492 0 0 0-.15-.39.583.583 0 0 0-.43-.15h-.59v1.07zm3.19 0 .74-1.52h.61l-1.07 2v1.17h-.56v-1.14l-1.07-2h.61l.74 1.49z" fill="#4E4E4E"/><path d="m303.45 8.13-.18.5h2.59c-.055.3-.223.569-.47.75a2.508 2.508 0 0 1-1.5.38h-.54v.57a1.27 1.27 0 0 1 .69.2c.206.153.385.339.53.55l1.79 2.42h1.12l-2.09-2.69a2.795 2.795 0 0 0-.53-.59 2.492 2.492 0 0 0 1.31-.6c.283-.261.461-.617.5-1h1.15l.16-.5h-1.3a1.766 1.766 0 0 0-.68-1.26h1.79l.18-.5h-4.56l-.16.5h.91a1.78 1.78 0 0 1 1.23.39c.248.229.402.543.43.88h-2.37z" fill="#212121"/><path d="M292.33.67h-34a1 1 0 0 0-1 1v14.66a.998.998 0 0 0 1 1h34a.999.999 0 0 0 1-1V1.67a.998.998 0 0 0-1-1z" fill="#fff" stroke="#E0E0E0" stroke-width=".67"/><path d="M272.86 8h-.55l-1.43-2.27V8h-.55V4.8h.55l1.43 2.28V4.8h.55V8zm2.53-1.43h-1.31v1h1.53V8h-2.09V4.8h2.08v.45h-1.52v.88h1.31v.44zm3-1.32h-1V8h-.55V5.25h-1V4.8h2.54l.01.45zM270.33 13V9.8h1.09c.294-.021.586.056.83.22a.752.752 0 0 1 .28.65.707.707 0 0 1-.46.66.69.69 0 0 1 .39.27.73.73 0 0 1 .15.47.847.847 0 0 1-.29.69c-.24.175-.534.26-.83.24h-1.16zm.55-1.44v1h.62a.649.649 0 0 0 .41-.13.455.455 0 0 0 .14-.36.441.441 0 0 0-.5-.51h-.67zm0-.41h.55a.62.62 0 0 0 .4-.12.403.403 0 0 0 .15-.33.418.418 0 0 0-.14-.35.691.691 0 0 0-.42-.1h-.54v.9zm4.12 1.11h-1.23l-.26.74h-.58l1.21-3.2h.5l1.16 3.2h-.58l-.22-.74zm-1.08-.45h.93l-.47-1.33-.46 1.33zM278.7 13h-.56l-1.42-2.27V13h-.56V9.8h.56l1.43 2.28V9.8h.55V13zm1.57-1.38-.36.38v1h-.55V9.8h.55v1.5l.31-.38.94-1.12h.67l-1.19 1.42L281.9 13h-.66l-.97-1.38zm2.51 1.38h-.55V9.8h.55V13zm3.22 0h-.55L284 10.73V13h-.56V9.8h.56l1.43 2.28V9.8h.57V13zm3.11-.42a1 1 0 0 1-.48.35 1.91 1.91 0 0 1-.7.11 1.39 1.39 0 0 1-.71-.18 1.146 1.146 0 0 1-.48-.52 1.796 1.796 0 0 1-.17-.79v-.25a1.63 1.63 0 0 1 .35-1.13 1.175 1.175 0 0 1 1-.41c.306-.02.608.072.85.26.22.195.356.467.38.76h-.54a.635.635 0 0 0-.219-.432.631.631 0 0 0-.461-.148.65.65 0 0 0-.56.27 1.418 1.418 0 0 0-.21.79v.25a1.33 1.33 0 0 0 .22.8.738.738 0 0 0 .61.29.802.802 0 0 0 .61-.19v-.63h-.66v-.42h1.21l-.04 1.22z" fill="#4E4E4E"/><path d="M263.83 4a1.001 1.001 0 0 1 .95 1v1A2.46 2.46 0 0 1 267 8.48v2.6a2.431 2.431 0 0 1-.709 1.711 2.408 2.408 0 0 1-1.711.709 2.42 2.42 0 0 1-2.42-2.42v-2.6a2.462 2.462 0 0 1 2.2-2.48V5a.45.45 0 0 0 0-.2.456.456 0 0 0-.28-.29.54.54 0 0 0-.21 0 .535.535 0 0 0-.496.341.532.532 0 0 0-.034.209v.22a1 1 0 0 1-.95 1 1 1 0 0 1-.94-1 .227.227 0 0 1 0-.11.196.196 0 0 1 .08-.08.19.19 0 0 1 .1 0 .2.2 0 0 1 .11 0c.031.021.056.05.074.083.017.033.026.07.026.107a.53.53 0 1 0 1.05 0V5a1 1 0 0 1 .94-1zm.74 3a.21.21 0 0 0-.12 0 .418.418 0 0 0-.11.07.592.592 0 0 0-.07.1.565.565 0 0 0 0 .13v1.18a.335.335 0 0 0 .021.126.327.327 0 0 0 .174.179c.04.016.082.025.125.025h.12l.1-.07a.267.267 0 0 0 .07-.11c.01-.04.01-.08 0-.12V7.4a.285.285 0 0 0 0-.13.296.296 0 0 0-.07-.1l-.1-.07a.27.27 0 0 0-.12 0l-.02-.1z"/><path d="M251.67.67h-30a1 1 0 0 0-1 1v14.66a.998.998 0 0 0 1 1h30a1 1 0 0 0 1-1V1.67a.998.998 0 0 0-1-1z" fill="#fff" stroke="#E0E0E0" stroke-width=".67"/><path opacity=".94" fill-rule="evenodd" clip-rule="evenodd" d="M225.34 10.64s.14-.62.52-2c.3-1.07.59-2.07.63-2.22l.09-.28h1.19c1.39 0 1.6 0 1.83.15.39.2.5.51.37 1-.11.44-.386.82-.77 1.06-.08.06-.16.13-.16.15 0 .02 0 .1.13.18.072.059.133.13.18.21.07.252.07.518 0 .77a4.46 4.46 0 0 0-.1.64v.27h-.58a2.47 2.47 0 0 1-.61 0c-.06-.06-.05-.2 0-.61s.11-.62 0-.73c-.11-.11-.22-.18-.64-.19-.42-.01-.39 0-.44 0-.05 0-.15.25-.34.94l-.16.58H226a5.397 5.397 0 0 1-.61 0l-.05.08zm3-2.52c.28-.08.39-.25.39-.59a.432.432 0 0 0 0-.22c-.08-.09-.33-.13-.8-.1h-.41l-.06.2a2.988 2.988 0 0 0-.15.66c0 .05 0 .07.12.09.334.023.67.003 1-.06l-.09.02zm1.93 2.61a.66.66 0 0 1-.38-.33c-.12-.26 0-.85.41-2.27.1-.34.18-.62.18-.63h.49a2.46 2.46 0 0 1 .5 0h.08l-.08.26c-.18.64-.37 1.41-.4 1.66-.03.25 0 .28 0 .35 0 .07.38.2.63.07s.34-.27.82-1.89c.026-.15.084-.293.17-.42l.09-.09h.95c.01 0-.58 2.22-.83 3.07v.14h-1a.728.728 0 0 1 .05-.15c.1-.28 0-.3-.4 0a1.34 1.34 0 0 1-.83.31c-.145.03-.295.03-.44 0l-.01-.08zm3.35-.09c.144-.755.338-1.5.58-2.23l.63-2.21h1c1.31 0 1.58 0 1.83.16a.811.811 0 0 1 .41.36 1.353 1.353 0 0 1 0 1.1 1.998 1.998 0 0 1-1.33 1.34 5.501 5.501 0 0 1-.69.07c-.93.06-.87 0-.92.17-.05.17-.12.37-.21.68l-.16.57h-.58c-.2.011-.4.011-.6 0l.04-.01zm2.71-2.38a.661.661 0 0 0 .57-.33.627.627 0 0 0 .06-.55c-.09-.14-.22-.17-.71-.17a2.77 2.77 0 0 0-.48 0 6.626 6.626 0 0 0-.24.94.172.172 0 0 0 0 .09c.259.03.521.03.78 0l.02.02zm1.71 2.48c-.35-.15-.44-.39-.33-.87.17-.68.52-.9 1.74-1.1.74-.13.92-.22 1-.48.08-.26-.12-.29-.45-.29a.6.6 0 0 0-.49.19l-.15.12H239c-.45 0-.59 0-.59-.07.073-.185.19-.35.34-.48.193-.165.422-.282.67-.34a3.51 3.51 0 0 1 1.78 0c.164.072.3.195.39.35.07.13.05.26-.28 1.51-.15.62-.28 1.17-.28 1.24v.11h-1.02l-.06-.14c-.08-.17-.08-.17-.46 0a2.123 2.123 0 0 1-.88.24.89.89 0 0 1-.49-.06l-.08.07zm1.62-.69a1.001 1.001 0 0 0 .45-.7v-.12h-.19c-.289.043-.569.13-.83.26a.562.562 0 0 0-.16.15.546.546 0 0 0-.06.22c0 .14 0 .18.12.22.22.054.45.054.67 0v-.03zm1.66 2c-.12 0-.12-.08 0-.4s.1-.43.38-.47c.28-.04.43-.11.5-.24a9.011 9.011 0 0 0 0-2.25 9.28 9.28 0 0 1 0-1.27h1.1v1a7.944 7.944 0 0 0 0 1c.06.05.26-.28 1.09-1.8l.11-.22h.5c.16-.012.32-.012.48 0 0 0-.7 1.29-1.42 2.5-1 1.73-1.21 2-1.69 2.1a4.696 4.696 0 0 1-1 .05h-.05z" fill="#2A2C83"/><path fill-rule="evenodd" clip-rule="evenodd" d="m245.79 11.67 1.4-5.08 1.34 2.63-2.74 2.45z" fill="#097A44"/><path fill-rule="evenodd" clip-rule="evenodd" d="m244.91 11.69 1.41-5.08 1.34 2.63-2.75 2.45z" fill="#F46F20"/><path d="M214.43 1h-28.86a1.25 1.25 0 0 0-1.24 1.24v13.52a1.251 1.251 0 0 0 1.24 1.24h28.86a1.25 1.25 0 0 0 1.24-1.24V2.24A1.251 1.251 0 0 0 214.43 1z" fill="#fff"/><path d="M195.45 17h19a1.228 1.228 0 0 0 1.24-1.23V10s-7.14 4.84-20.22 7h-.02z" fill="#F58220"/><path fill-rule="evenodd" clip-rule="evenodd" d="M189.06 8.44a1.39 1.39 0 0 1-1 .3h-.2V6.31h.2a1.362 1.362 0 0 1 1 .3 1.211 1.211 0 0 1 .304 1.414c-.07.159-.174.3-.304.416zm-.86-2.75h-1.09v3.67h1.08a2.05 2.05 0 0 0 1.36-.43 1.809 1.809 0 0 0 .68-1.41 1.842 1.842 0 0 0-.601-1.351 1.852 1.852 0 0 0-1.399-.479h-.03zm2.38 0h.73v3.67h-.73V5.69zm2.54 1.4c-.44-.15-.57-.26-.57-.46s.23-.4.55-.4a.776.776 0 0 1 .6.29l.38-.49a1.67 1.67 0 0 0-1.11-.4 1.101 1.101 0 0 0-1.18 1c0 .5.23.76.93 1 .176.055.346.126.51.21a.49.49 0 0 1 .16.16.46.46 0 0 1 .013.43.526.526 0 0 1-.523.31.884.884 0 0 1-.81-.49l-.48.45a1.5 1.5 0 0 0 1.32.7 1.212 1.212 0 0 0 1.31-1.21c0-.58-.26-.85-1.1-1.15v.05zm1.33.43a1.926 1.926 0 0 0 1.242 1.795c.242.092.499.134.758.125.323.003.642-.073.93-.22v-.84a1.2 1.2 0 0 1-.9.4 1.222 1.222 0 0 1-1.27-1.26 1.235 1.235 0 0 1 1.24-1.26 1.27 1.27 0 0 1 .93.41v-.84a1.94 1.94 0 0 0-.91-.22 2 2 0 0 0-2.02 1.91zm8.92.63-1-2.46h-.81l1.61 3.76h.4l1.64-3.76h-.8l-1 2.46h-.04zm2.16 1.21h2.1v-.62h-1.36v-1h1.31v-.62h-1.31v-.81h1.36v-.62h-2.1v3.67zm3.54-2h-.21V6.27h.23c.46 0 .71.18.71.54 0 .36-.25.57-.73.57v-.02zm1.49-.61c0-.69-.49-1.08-1.34-1.08h-1.1v3.69h.74V7.88h.1l1 1.48h.91l-1.17-1.55a1 1 0 0 0 .86-1v-.06z" fill="#1A1919"/><path fill-rule="evenodd" clip-rule="evenodd" d="M201.66 7.53a2 2 0 1 1-4.001-.001 2 2 0 0 1 4.001 0z" fill="#F58220"/><path d="M178.33.67h-30a1 1 0 0 0-1 1v14.66a.998.998 0 0 0 1 1h30a.999.999 0 0 0 1-1V1.67a.998.998 0 0 0-1-1z" fill="#fff" stroke="#E0E0E0" stroke-width=".67"/><path fill-rule="evenodd" clip-rule="evenodd" d="M160.3 4h6.11a4.998 4.998 0 0 1 5 5 5 5 0 0 1-5.01 5h-6.1V4z" fill="#184977"/><path d="M160.3 13.5a4.497 4.497 0 0 0 4.357-5.408A4.499 4.499 0 0 0 155.75 9a4.512 4.512 0 0 0 1.342 3.194A4.508 4.508 0 0 0 160.3 13.5z" fill="#fff" stroke="#184977"/><path fill-rule="evenodd" clip-rule="evenodd" d="M162.32 9a2.438 2.438 0 0 0-.41-1.36 2.4 2.4 0 0 0-1.1-.89v4.5a2.4 2.4 0 0 0 1.1-.89c.269-.403.411-.876.41-1.36zm-2.52 2.25v-4.5A2.423 2.423 0 0 0 158.271 9a2.425 2.425 0 0 0 1.529 2.25z" fill="#184977"/><path d="M141.67.67h-30a1 1 0 0 0-1 1v14.66a.998.998 0 0 0 1 1h30a1 1 0 0 0 1-1V1.67a.998.998 0 0 0-1-1z" fill="#fff" stroke="#E0E0E0" stroke-width=".67"/><path d="m128.79 11.69-.28-.34v.34h-.92v-.59a.85.85 0 0 1-.38.09h-.33v.5h-1.38l-.25-.33-.25.33h-2.29V9.51H125l.25.32.25-.32h8.4V2H120v5.87l.52-1.23h.9l.3.68v-.68h1.12l.18.5.17-.5h5v.25a1.11 1.11 0 0 1 .72-.25h1.6l.3.68v-.68h.95L132 7v-.36h1v2.18h-1l-.25-.39v.39h-1.38l-.14-.33h-.37l-.14.33h-.85a1 1 0 0 1-.69-.23v.23h-1.41l-.28-.34v.34h-5.24l-.13-.33h-.38l-.14.33h-.6v7.09h13.91v-4.38a.85.85 0 0 1-.53.16h-4.59z" fill="#0079C1"/><path d="m133.92 9.78-.16.37-.78-.16a.131.131 0 0 0-.1 0 .153.153 0 0 0 0 .09.14.14 0 0 0 .14.14h.38c.33 0 .52.17.52.47a.53.53 0 0 1 0 .21.464.464 0 0 1-.13.18.541.541 0 0 1-.4.14h-.85v-.37h.92a.072.072 0 0 0 0-.05.122.122 0 0 0 0-.06h-.5a.472.472 0 0 1-.2 0 .42.42 0 0 1-.17-.1.39.39 0 0 1-.11-.17.435.435 0 0 1 0-.19c0-.073.017-.145.05-.21a.57.57 0 0 1 .12-.18.517.517 0 0 1 .19-.11.5.5 0 0 1 .21 0h.87z" fill="#0079C1"/><path d="M105 .67H75a1 1 0 0 0-1 1v14.66a1 1 0 0 0 1 1h30a.999.999 0 0 0 1-1V1.67a.998.998 0 0 0-1-1z" fill="#fff" stroke="#E0E0E0" stroke-width=".67"/><path d="M86.46 14a4.999 4.999 0 1 0 0-9.998 4.999 4.999 0 0 0 0 9.998z" fill="#007BDB"/><path d="M93.54 14a5 5 0 1 0-.12-10 5 5 0 0 0 .12 10z" fill="#E42B00"/><path fill-rule="evenodd" clip-rule="evenodd" d="M90 12.58A5.9 5.9 0 0 0 91.52 9 5.9 5.9 0 0 0 90 5.42 4.75 4.75 0 0 0 88.48 9 4.78 4.78 0 0 0 90 12.58z" fill="#1740CE"/><path d="M68.33.67h-30a1 1 0 0 0-1 1v14.66a1 1 0 0 0 1 1h30a1 1 0 0 0 1-1V1.67a1 1 0 0 0-1-1z" fill="#fff" stroke="#E0E0E0" stroke-width=".67"/><path d="M49.8 14a5 5 0 1 0-.12-9.999 5 5 0 0 0 .12 10z" fill="#C00"/><path d="M56.87 14a5 5 0 1 0 0-10 5 5 0 0 0 0 10z" fill="#F90"/><path fill-rule="evenodd" clip-rule="evenodd" d="M53.33 12.58A5.899 5.899 0 0 0 54.85 9a5.9 5.9 0 0 0-1.52-3.58A4.76 4.76 0 0 0 51.82 9a4.792 4.792 0 0 0 1.51 3.58z" fill="#F16D27"/><path d="M31.67.67h-30a1 1 0 0 0-1 1v14.66a1 1 0 0 0 1 1h30a1 1 0 0 0 1-1V1.67a1 1 0 0 0-1-1z" fill="#fff" stroke="#E0E0E0" stroke-width=".67"/><path d="m14 5.8-2.75 6.56H9.43L8.08 7.12a.76.76 0 0 0-.41-.58A7.27 7.27 0 0 0 6 6v-.2h2.93a.78.78 0 0 1 .51.2.86.86 0 0 1 .27.48l.71 3.8 1.77-4.48H14zm7 4.42c0-1.74-2.39-1.83-2.38-2.61 0-.23.23-.48.72-.54a3.14 3.14 0 0 1 1.66.29L21.31 6a4.47 4.47 0 0 0-1.58-.29c-1.67 0-2.86.89-2.87 2.17 0 .94.84 1.47 1.49 1.78.65.31.88.53.88.82 0 .44-.53.63-1 .64a3.491 3.491 0 0 1-1.74-.42l-.31 1.44c.603.232 1.244.35 1.89.35 1.78 0 2.95-.88 2.95-2.24l-.02-.03zm4.43 2.13H27L25.63 5.8h-1.45a.73.73 0 0 0-.43.13.72.72 0 0 0-.29.35l-2.55 6.08h1.78l.36-1h2.18l.2.99zM23.54 10l.89-2.46.51 2.46h-1.4zM16.4 5.8 15 12.36h-1.7l1.4-6.56h1.7z" fill="#1A1F71"/></svg>